<svg width="20" height="20" viewBox="0 0 20 20" fill="none" xmlns="http://www.w3.org/2000/svg">
<path fill-rule="evenodd" clip-rule="evenodd" d="M10.0003 18.3346C14.6027 18.3346 18.3337 14.6037 18.3337 10.0013C18.3337 5.39895 14.6027 1.66797 10.0003 1.66797C5.39794 1.66797 1.66699 5.39895 1.66699 10.0013C1.66699 14.6037 5.39794 18.3346 10.0003 18.3346ZM6.10272 6.1037C5.74396 6.46248 5.74396 7.04415 6.10272 7.40293L8.70112 10.0013L6.10277 12.5997C5.74401 12.9585 5.74401 13.5401 6.10277 13.8989C6.46153 14.2576 7.0432 14.2576 7.40196 13.8989L10.0003 11.3005L12.5987 13.8989C12.9575 14.2576 13.5391 14.2576 13.8979 13.8989C14.2566 13.5401 14.2566 12.9585 13.8979 12.5997L11.2995 10.0013L13.8979 7.40293C14.2567 7.04415 14.2567 6.46248 13.8979 6.1037C13.5392 5.74491 12.9575 5.74491 12.5987 6.1037L10.0003 8.70207L7.40193 6.1037C7.04317 5.74491 6.46148 5.74491 6.10272 6.1037Z" fill="#576B8B"/>
</svg>
