<svg width="58" height="12" viewBox="0 0 58 12" fill="none" xmlns="http://www.w3.org/2000/svg">
<path d="M7.48131 8.16667H10.7341V11.8333H0V8.16667H3.26901L3.30154 4.38333C2.06549 5.5 1.18725 5.5 0 5.5V1.83333C1.67516 1.83333 3.25274 1.83333 3.25274 0.166667H7.48131V8.16667Z" fill="black"/>
<path d="M28.8225 0.166667V11.8333H24.5939V6.28333L21.4876 11.8333H18.7227L15.6164 6.28333V11.8333H11.3878V0.166667H16.5922L20.1051 6.83333L23.6181 0.166667H28.8225Z" fill="black"/>
<path d="M40.2159 11.8333L39.4352 9.73333H34.5886L33.808 11.8333H29.1565L33.873 0.166667H40.1508L44.8673 11.8333H40.2159ZM35.6946 6.73333H38.3293L37.0119 3.16667L35.6946 6.73333Z" fill="black"/>
<path d="M43.7367 5.98333C43.7367 1.93333 45.8835 0 50.8927 0C55.4466 0 57.8211 1.63333 58 5.31667H53.6738C53.5112 4.21667 52.6818 3.66667 50.8927 3.66667C48.3881 3.66667 47.9653 4.75 47.9653 5.98333C47.9653 7.23333 48.4044 8.33333 50.8927 8.33333C52.6818 8.33333 53.5112 7.76667 53.6738 6.65H58C57.8211 10.35 55.4629 12 50.8927 12C45.8835 12 43.7367 10.05 43.7367 5.98333Z" fill="black"/>
</svg>
